 <svg version="1.2" xmlns="http://www.w3.org/2000/svg"
            viewBox="60 50 1170 6700"
           preserveAspectRatio="xMidYMid meet">
          
              <svg><defs><clipPath id="_clipPath_ZeMvT7mQvBvEvGvbCt0Zb7W4DsgYSLLM"><rect width="250vw" height="7000vw"/></clipPath></defs>
            <g transform="translate(0.000000,7000.000000) scale(0.100000,-0.100000)" stroke="none">
              <g>
          <path d="M9590 68321 c-5 -11 -10 -25
           -10 -32 0 -7 -6 -20 -14 -28 -18 -20
          -463 -823 -483 -871 -8 -19 -21 -48 -29 -65 -24 -53 -305 -708 -332 -774 -15
          -35 -32 -65 -38 -68 -7 -2 -65 12 -129 32 -85 26 -120 33 -129 25 -20 -16 -41
          16 -37 57 2 26 -1 33 -10 28 -7 -5 -17 -1 -25 9 -21 30 -77 66 -100 66 -15 0
          -93 68 -244 213 -289 275 -317 300 -335 293 -8 -3 -15 0 -15 7 0 11 -40 77
          -108 180 -13 20 -30 37 -36 37 -17 0 -69 -88 -60 -102 5 -10 110 -147 150
          -197 4 -5 24 5 50 24 20 15 29 8 224 -177 112 -106 230 -218 262 -248 42 -40
          58 -62 58 -81 0 -33 96 -119 132 -119 15 0 42 -19 78 -55 117 -116 300 -276
          310 -270 19 11 10 31 -27 64 -97 86 -253 234 -250 237 4 4 169 -46 224 -67 29
          -12 34 -11 50 6 10 11 19 28 21 38 2 10 25 68 51 130 54 126 63 145 172 377
          182 390 176 380 216 380 16 0 23 -6 23 -20 0 -11 1 -20 3 -20 2 0 52 -9 112
          -20 60 -11 110 -20 112 -20 2 0 3 42 3 94 0 52 4 98 10 101 15 9 21 -32 18
          -120 l-3 -80 39 -3 c21 -2 43 1 49 7 16 16 34 13 41 -4 3 -9 -3 -78 -13 -153
          -11 -75 -31 -222 -45 -327 -15 -104 -30 -217 -36 -250 -18 -119 -23 -202 -11
          -209 15 -10 14 -26 -3 -26 -25 0 -38 -74 -14 -82 7 -3 -29 -15 -80 -28 -74
          -18 -92 -26 -90 -39 4 -19 11 -18 96 2 43 10 59 11 53 3 -13 -15 -36 -154 -28
          -163 4 -3 15 1 25 10 10 10 23 17 29 17 15 0 38 123 24 128 -6 2 -11 9 -11 17
          0 8 18 14 48 17 26 3 63 12 82 21 42 19 160 50 167 43 3 -2 19 2 38 9 25 11
          39 12 63 3 24 -9 40 -8 82 5 29 9 58 17 65 17 8 0 22 10 32 23 11 15 42 30 83
          41 36 10 139 39 230 66 143 42 276 80 475 136 71 20 83 18 116 -17 28 -30 32
          -31 99 -27 64 3 103 19 88 34 -4 3 -26 2 -50 -3 -24 -5 -51 -7 -62 -5 -15 3
          -13 7 13 23 17 10 31 26 31 34 0 39 29 72 75 85 25 7 47 11 49 9 3 -2 0 -28
          -6 -58 -10 -54 -5 -87 11 -77 10 7 35 165 27 173 -6 6 -182 -42 -231 -63 -16
          -7 -36 -21 -44 -32 -8 -11 -20 -18 -26 -16 -7 3 -75 -14 -151 -37 -77 -23
          -161 -48 -189 -55 -65 -16 -321 -89 -407 -115 -91 -27 -134 -34 -142 -20 -17
          27 -167 -10 -195 -48 -11 -15 -46 -30 -106 -46 -104 -29 -116 -30 -109 -11 6
          17 -17 31 -66 40 -49 9 -66 21 -53 38 12 15 43 181 43 231 0 19 -4 37 -10 39
          -6 2 -5 37 4 98 8 52 22 154 31 225 10 72 26 179 36 239 17 96 19 163 19 544
          0 373 2 442 17 496 9 35 13 70 10 79 -9 24 -63 22 -77 -2z m36 -48 c-10 -10
          -19 5 -10 18 6 11 8 11 12 0 2 -7 1 -15 -2 -18z m-24 -55 c2 -7 1 -206 -2
          -443 l-5 -430 -70 97 c-38 54 -78 100 -87 103 -11 4 -66 -20 -143 -60 -69 -37
          -125 -64 -125 -61 0 3 23 53 50 112 28 59 50 111 50 116 0 13 314 578 321 578
          4 0 9 -6 11 -12z m-2063 -862 c12 -18 21 -50 21 -71 l0 -38 -39 44 c-38 43
          -39 45 -23 72 9 15 17 27 18 27 1 0 12 -15 23 -34z m1971 -26 c0 -5 -4 -10
          -10 -10 -5 0 -10 5 -10 10 0 6 5 10 10 10 6 0 10 -4 10 -10z m-1197 -716 c38
          -44 14 -44 -37 -1 -23 20 -36 38 -32 45 9 15 31 1 69 -44z m1717 -258 c0 -17
          -22 -26 -65 -26 -19 0 -36 -4 -40 -10 -3 -5 -12 -7 -20 -4 -20 8 -10 22 28 38
          43 19 97 20 97 2z m-469 -57 c19 -6 41 -13 49 -16 16 -6 -80 -41 -114 -42 -16
          -1 -17 2 -8 11 7 7 12 22 12 35 0 26 11 28 61 12z"/>
          <path d="M7503 67354 c-3 -9 3 -25 16 -37 11 -12 21 -16 21 -10 0 6 -6 18 -13
          25 -8 7 -12 19 -9 26 6 18 -8 15 -15 -4z"/>
          <path  d="M9291 67151 c-22 -14 4 -41 40 -41 35 0 48 19 24 37 -22 15 -44 17
          -64 4z"/>
          <path d="M9088 66890 c-16 -65 -8 -89 12 -40 19 45 36 38 31 -12 -3 -24 26
          -23 39 2 9 17 14 18 36 8 22 -11 25 -17 20 -45 -3 -18 -8 -50 -11 -70 -5 -31
          -4 -34 4 -15 15 32 23 27 17 -10 -3 -18 6 1 21 42 22 60 33 76 51 78 27 4 28
          -14 7 -103 -16 -66 -10 -80 26 -66 22 8 30 25 57 127 36 128 35 134 -23 134
          -16 0 -49 -5 -72 -10 -36 -8 -53 -6 -111 15 -38 14 -74 25 -79 25 -6 0 -17
          -27 -25 -60z"/>
          <path d="M9248 66933 c12 -2 30 -2 40 0 9 3 -1 5 -23 4 -22 0 -30 -2 -17 -4z"/>
          <path d="M7136 66738 c-9 -13 -21 -39 -27 -57 l-12 -33 82 -77 c45 -42 81 -82
          81 -88 0 -7 11 -13 25 -13 15 0 25 6 25 14 0 33 30 19 100 -47 41 -39 116
          -110 165 -157 179 -168 240 -225 312 -288 54 -47 73 -70 73 -88 0 -49 88 -134
          137 -134 23 0 58 -34 49 -49 -3 -5 37 -98 90 -206 72 -147 101 -195 113 -193
          11 2 15 12 13 33 -2 17 -8 31 -13 33 -10 4 -99 185 -99 202 0 5 -7 18 -16 28
          -9 11 -25 39 -35 63 -20 42 -18 41 63 -42 46 -47 96 -94 111 -104 16 -10 24
          -21 19 -24 -16 -11 -43 -104 -33 -114 17 -17 40 1 57 43 l17 41 41 -40 c23
          -23 47 -41 53 -41 35 0 12 32 -99 138 -67 64 -157 150 -200 191 -55 53 -78 81
          -78 98 0 35 -91 123 -127 123 -32 0 -58 23 -423 363 -128 119 -240 217 -249
          217 -9 0 -25 13 -36 29 -37 55 -133 177 -148 190 -13 10 -18 8 -31 -11z m48
          -88 c4 0 4 6 0 13 -4 6 0 5 9 -3 9 -8 19 -31 23 -50 l6 -35 -31 33 c-17 17
          -35 32 -40 32 -14 0 -23 18 -16 31 5 7 13 5 24 -5 10 -9 21 -16 25 -16z m888
          -777 c21 -20 38 -41 38 -45 0 -14 -41 -8 -46 7 -4 8 -11 15 -16 15 -13 0 -37
          31 -38 48 0 22 24 13 62 -25z"/>
          <path d="M8966 66661 c-14 -15 -17 -33 -14 -85 1 -36 0 -66 -4 -66 -5 0 -8 -4
          -8 -9 0 -6 16 -7 35 -4 33 5 36 3 51 -32 15 -36 14 -40 -17 -119 -18 -44 -36
          -82 -40 -84 -4 -2 -5 -10 -2 -18 9 -25 -17 -15 -29 11 -18 40 -40 26 -59 -35
          -13 -42 -22 -56 -43 -63 -14 -5 -26 -13 -26 -18 0 -12 17 -11 25 1 9 14 27 1
          21 -15 -7 -18 5 -27 20 -14 9 7 19 7 33 0 11 -6 36 -11 55 -11 62 0 126 -22
          126 -43 0 -11 5 -17 13 -14 6 2 11 10 9 16 -3 14 44 15 53 1 3 -5 14 -10 23
          -10 13 0 21 18 35 78 9 42 17 80 17 85 0 15 -19 6 -25 -13 -3 -11 -13 -20 -21
          -20 -8 0 -14 9 -14 20 0 11 5 20 10 20 6 0 10 10 10 23 0 13 4 27 9 33 10 10
          20 94 11 94 -3 0 -10 -15 -17 -32 -6 -18 -20 -56 -30 -85 -21 -61 -31 -73 -43
          -53 -23 36 -50 143 -52 206 l-3 69 37 3 c23 2 47 -4 64 -14 l27 -18 -8 24 c-4
          14 -8 37 -7 53 1 29 -42 82 -58 72 -5 -3 -12 -20 -15 -38 -4 -18 -13 -41 -20
          -51 -20 -27 -46 -4 -44 38 1 17 -6 55 -16 84 -19 57 -39 66 -69 33z m24 -500
          c5 -11 10 -28 10 -37 0 -15 -5 -13 -28 9 -26 25 -29 26 -51 11 -12 -9 -25 -13
          -28 -10 -11 10 18 35 45 39 15 2 30 5 34 6 4 0 12 -8 18 -18z m144 -32 c14
          -11 26 -27 26 -35 0 -11 -9 -8 -34 11 -20 15 -40 23 -50 19 -9 -3 -16 -2 -16
          4 0 10 16 20 36 21 6 1 23 -8 38 -20z"/>
          <path d="M8840 66580 c-13 -8 -12 -10 3 -10 9 0 17 5 17 10 0 12 -1 12 -20 0z"/>
          <path  d="M8390 66443 c0 -10 14 -43 31 -73 17 -30 53 -98 81 -150 28 -52 58
          -100 67 -107 14 -10 14 -15 2 -34 -17 -28 -111 -295 -111 -315 0 -9 7 -14 16
          -12 10 2 38 49 70 118 65 141 81 190 63 201 -10 6 -10 11 -1 22 7 8 10 21 6
          30 -3 10 4 20 23 29 16 8 29 23 31 36 4 25 -13 52 -33 52 -14 0 -35 -43 -35
          -73 0 -19 -2 -19 -14 -7 -8 8 -47 74 -86 145 -40 72 -77 136 -82 143 -15 17
          -28 15 -28 -5z"/>
          <path d="M8680 66394 c-15 -39 -13 -84 4 -84 34 0 59 73 34 98 -18 18 -27 15
          -38 -14z"/>
          <path d="M9220 66410 c0 -5 5 -10 11 -10 5 0 7 5 4 10 -3 6 -8 10 -11 10 -2 0
          -4 -4 -4 -10z"/>
          <path d="M9763 66247 c-5 -7 -78 -64 -163 -126 -85 -62 -156 -117 -158 -122
          -2 -5 3 -12 12 -15 18 -7 346 231 346 251 0 18 -28 27 -37 12z"/>
          <path d="M6814 66088 c-4 -7 -11 -37 -15 -67 l-8 -55 70 -83 c82 -96 119 -120
          153 -98 21 14 35 1 358 -318 306 -304 335 -336 331 -360 -5 -23 2 -35 35 -66
          22 -21 71 -54 108 -73 42 -21 77 -47 90 -66 12 -17 24 -28 28 -25 4 4 51 -38
          105 -93 165 -166 218 -204 244 -177 9 8 -42 63 -58 63 -18 0 -78 67 -71 79 4
          5 13 8 20 5 15 -6 36 43 36 82 0 20 -5 24 -30 24 -26 0 -31 -5 -40 -40 -6 -22
          -16 -40 -23 -40 -7 1 -44 31 -84 69 -65 62 -70 68 -52 79 10 7 19 19 19 27 0
          16 1 16 111 -11 73 -18 81 -18 77 3 -2 12 -37 25 -138 50 -74 18 -138 33 -142
          33 -16 0 -7 -31 10 -36 53 -17 54 -18 38 -39 -14 -20 -15 -19 -49 13 -25 24
          -33 39 -29 57 6 32 -78 112 -128 121 -29 5 -90 61 -373 343 -185 184 -348 341
          -361 348 -13 7 -40 36 -60 65 -59 88 -140 191 -153 195 -6 2 -15 -2 -19 -9z
          m39 -55 c4 -3 2 -12 -5 -20 -6 -7 -8 -17 -4 -20 4 -4 11 -1 17 7 7 12 8 9 7
          -9 -2 -13 3 -26 11 -29 9 -3 11 0 7 9 -4 8 1 4 12 -8 13 -15 17 -31 14 -53 -4
          -30 -5 -30 -23 -14 -11 9 -19 23 -19 30 0 7 -9 18 -20 24 -15 8 -20 21 -20 50
          0 38 8 49 23 33z m968 -955 c50 -39 60 -58 29 -58 -20 0 -100 67 -100 84 0 15
          32 3 71 -26z"/>
          <path d="M11095 66076 c-33 -13 -65 -21 -71 -19 -6 2 -40 -10 -75 -27 -35 -16
          -70 -30 -76 -30 -7 0 -13 -7 -13 -15 0 -17 -16 -20 -25 -6 -3 6 -25 2 -53 -9
          -26 -11 -110 -42 -187 -70 -77 -28 -187 -69 -245 -90 -359 -135 -480 -176
          -492 -169 -21 14 -92 10 -139 -6 -51 -18 -85 -47 -93 -80 -4 -14 -16 -25 -33
          -29 -16 -4 -36 -9 -45 -12 -13 -4 -16 -1 -12 9 3 8 0 18 -6 22 -13 8 -222 46
          -227 41 -2 -2 -1 -11 3 -20 7 -17 14 -19 112 -36 114 -20 115 -23 19 -58 -48
          -17 -99 -35 -114 -38 l-27 -7 22 23 c41 44 20 108 -24 75 -13 -9 -19 -28 -20
          -61 l-2 -48 -58 -22 c-34 -12 -60 -29 -62 -38 -2 -9 1 -16 6 -16 6 0 107 34
          226 75 124 42 240 76 273 80 69 6 221 64 228 86 3 9 57 35 133 63 70 26 179
          67 242 91 63 23 129 47 145 53 17 6 68 24 115 42 47 17 136 50 198 72 114 40
          114 40 135 20 35 -31 63 -42 108 -42 44 0 118 30 140 56 23 28 0 26 -65 -6
          -52 -26 -71 -31 -88 -23 -20 9 -20 10 10 22 24 10 34 23 42 50 9 33 14 38 76
          58 l66 21 -6 -49 c-5 -39 -4 -49 7 -49 8 0 17 14 21 31 8 43 8 109 -1 109 -5
          -1 -35 -11 -68 -24z m-1255 -474 c0 -11 -66 -42 -88 -42 -9 0 -30 -7 -46 -15
          -18 -10 -33 -12 -39 -6 -14 14 2 33 21 26 9 -3 13 -3 9 2 -13 13 56 42 101 43
          23 0 42 -4 42 -8z"/>
          <path d="M8930 66079 c0 -8 -14 -9 -44 -5 -24 4 -46 3 -49 -1 -14 -25 -15 -62
          -3 -79 13 -17 15 -17 44 14 25 26 38 32 74 33 38 0 40 2 21 11 -13 6 -23 17
          -23 25 0 7 -4 13 -10 13 -5 0 -10 -5 -10 -11z"/>
          <path d="M9007 66038 c-2 -7 4 -24 14 -37 11 -13 19 -29 19 -35 0 -7 16 -18
          35 -26 23 -9 35 -21 36 -34 1 -15 3 -16 6 -5 2 9 18 22 35 30 20 9 37 27 45
          47 13 31 12 33 -13 42 -14 6 -48 8 -74 4 -38 -5 -48 -3 -53 10 -7 19 -43 22
          -50 4z"/>
          <path d="M9411 65993 c0 -7 -9 -13 -18 -13 -13 0 -14 -3 -5 -12 7 -7 8 -17 2
          -28 -17 -32 -81 -313 -73 -321 4 -4 20 -5 34 -2 23 4 27 14 53 121 16 64 32
          132 36 149 7 26 5 35 -8 43 -15 8 -15 11 -2 20 9 6 10 10 3 10 -6 0 -14 10
          -16 23 -2 12 -5 16 -6 10z"/>
          <path d="M8985 65894 c-9 -9 -14 -23 -11 -31 3 -7 -12 -31 -34 -53 -22 -22
          -35 -42 -30 -45 13 -8 0 -35 -17 -35 -10 0 -14 7 -10 20 3 10 -1 24 -9 31 -8
          6 -11 15 -8 20 8 13 -25 57 -48 65 -13 4 -17 11 -14 22 5 13 2 12 -9 -2 -8
          -11 -16 -29 -17 -40 0 -12 -2 -27 -2 -34 -1 -7 -6 -16 -12 -20 -20 -14 -54
          -80 -53 -103 1 -22 2 -22 7 -4 12 37 40 68 53 59 9 -5 10 -2 6 9 -7 18 9 22
          31 8 16 -10 23 -59 10 -67 -5 -4 -5 -10 1 -17 10 -14 -2 -106 -20 -149 -6 -16
          -18 -28 -25 -28 -8 0 -14 -8 -14 -17 0 -25 -18 -3 -22 27 -5 37 -43 39 -61 3
          -18 -34 -42 -151 -34 -160 4 -3 16 6 28 21 31 40 66 50 97 30 24 -16 25 -16
          19 5 -3 11 -1 19 4 15 5 -3 7 -21 5 -40 -3 -22 0 -36 7 -38 59 -17 110 -35
          100 -35 -15 -1 -18 -31 -4 -31 5 0 11 7 15 15 3 8 12 15 21 15 8 0 15 4 15 9
          0 15 -48 41 -75 41 -34 0 -28 24 7 28 29 3 78 -35 78 -61 0 -9 9 -21 20 -27
          17 -9 20 -8 20 9 0 11 4 22 9 25 4 3 11 25 15 48 4 24 9 53 13 66 7 30 -11 28
          -25 -3 -7 -16 -17 -23 -27 -19 -8 3 -15 1 -15 -6 0 -6 -4 -8 -10 -5 -5 3 -10
          22 -10 41 0 19 -9 51 -19 72 -15 29 -18 53 -15 111 5 87 16 105 60 98 28 -5
          31 -3 27 16 -3 12 -10 32 -16 45 -9 18 -7 30 8 60 10 20 21 40 23 45 6 13 -16
          7 -33 -9z m-15 -515 c0 -11 -4 -17 -10 -14 -5 3 -10 13 -10 21 0 8 5 14 10 14
          6 0 10 -9 10 -21z"/>
          <path d="M8200 65786 c0 -21 5 -23 139 -57 109 -27 123 -29 137 -15 13 14 12
          16 -13 22 -15 3 -35 8 -43 11 -17 6 -209 53 -216 53 -2 0 -4 -6 -4 -14z"/>
          <path d="M8424 65665 c-9 -13 -17 -39 -18 -57 -1 -26 3 -33 18 -33 14 0 23 12
          34 43 22 66 -1 98 -34 47z"/>
          <path d="M9010 65645 c0 -25 15 -49 27 -44 6 2 2 18 -8 34 -16 25 -19 26 -19
          10z"/>
          <path d="M9440 65355 c-96 -68 -176 -122 -179 -119 -2 2 5 17 17 33 11 16 22
          42 24 57 3 27 1 29 -27 26 -42 -5 -48 -13 -51 -83 -2 -45 -8 -65 -19 -72 -13
          -7 -14 -12 -4 -23 15 -18 39 -1 39 30 1 20 1 20 15 2 13 -17 17 -17 34 -5 279
          199 341 246 341 262 0 9 -3 17 -8 17 -4 0 -86 -56 -182 -125z"/>
          <path d="M6610 65375 c0 -65 3 -75 37 -125 39 -59 145 -170 161 -170 6 0 12 8
          14 17 2 11 27 -15 73 -76 109 -143 123 -162 162 -221 21 -30 64 -87 95 -127
          32 -39 58 -74 58 -78 0 -8 46 -69 82 -107 15 -17 28 -34 28 -40 0 -5 18 -35
          40 -65 24 -33 40 -68 40 -84 0 -15 5 -31 10 -34 6 -4 22 -30 36 -58 34 -67 50
          -84 84 -92 50 -11 139 -133 140 -191 0 -13 121 -233 152 -277 16 -22 23 -25
          34 -16 11 9 14 8 14 -3 0 -8 -4 -18 -9 -24 -9 -10 -24 -65 -41 -152 -5 -29
          -24 -79 -42 -110 -51 -92 -61 -113 -53 -120 4 -4 18 6 32 22 29 34 46 24 37
          -22 -4 -21 -15 -35 -34 -44 -25 -11 -29 -19 -35 -72 -3 -34 -20 -142 -36 -241
          -17 -99 -33 -196 -35 -215 -3 -19 -9 -66 -14 -105 -6 -38 -17 -106 -25 -150
          -9 -44 -20 -116 -25 -160 -5 -44 -16 -125 -25 -180 -8 -55 -22 -147 -30 -205
          -18 -119 -35 -231 -65 -409 -11 -68 -20 -135 -20 -149 0 -23 2 -24 14 -12 9
          10 32 135 65 350 46 306 63 411 91 570 6 30 15 93 21 140 6 46 12 87 14 90 2
          3 11 63 20 134 9 70 30 205 46 300 17 94 30 179 30 188 0 10 4 20 10 23 12 8
          12 -30 -1 -113 -10 -63 -40 -290 -74 -552 -9 -63 -23 -167 -31 -230 -9 -63
          -24 -182 -35 -265 -11 -82 -26 -202 -35 -265 -8 -63 -24 -179 -34 -256 -10
          -78 -22 -147 -25 -153 -10 -15 -37 -14 -80 4 -36 15 -37 15 -61 -11 -29 -31
          -30 -36 -10 -74 22 -42 78 -81 125 -87 31 -4 39 -9 35 -22 -18 -59 -45 -183
          -60 -279 -20 -127 -14 -166 27 -160 33 4 74 116 98 263 11 66 24 134 30 151
          11 30 14 32 80 38 43 5 76 13 86 23 32 32 -10 103 -62 103 -12 0 -25 4 -28 9
          -6 9 86 202 414 866 100 204 211 430 247 504 35 74 66 132 68 129 5 -5 -89
          -234 -202 -493 -39 -88 -107 -243 -151 -345 -44 -102 -119 -273 -166 -381
          -110 -252 -120 -279 -112 -286 14 -14 15 -13 346 752 43 99 134 310 204 469
          69 160 126 296 126 303 0 16 -12 17 -29 1 -8 -8 -6 1 4 22 10 19 21 37 24 40
          12 10 41 68 41 83 0 8 20 36 45 61 25 26 45 52 45 59 0 7 -14 -4 -30 -23 -16
          -19 -30 -29 -30 -22 0 6 -9 12 -20 12 -11 0 -20 4 -20 10 0 5 9 14 20 20 11 6
          20 20 20 32 0 16 -5 19 -25 16 -14 -3 -25 -1 -25 3 0 5 4 9 8 9 5 0 17 7 28
          16 18 14 17 15 -19 9 -37 -6 -38 -6 -31 22 3 15 12 40 19 56 8 15 9 27 4 27
          -5 0 -9 5 -9 11 0 5 4 8 8 5 4 -2 14 0 22 5 13 8 13 10 0 19 -13 8 -12 10 3
          10 9 0 17 7 17 15 0 20 39 19 47 0 3 -9 -11 -40 -33 -73 -22 -31 -40 -60 -42
          -64 -8 -17 18 -7 39 15 19 19 20 20 12 2 -7 -14 -6 -28 3 -45 10 -17 14 -20
          14 -8 0 9 4 18 9 20 5 2 32 75 60 162 37 116 48 163 40 172 -8 10 -6 13 8 11
          21 -1 463 287 463 302 0 28 -35 11 -197 -95 -259 -170 -298 -194 -317 -194
          -17 0 -22 -15 -7 -25 10 -6 4 -63 -10 -101 l-8 -22 -47 24 c-26 13 -58 24 -70
          24 -13 0 -30 10 -38 22 -13 19 -13 25 -1 47 8 14 21 44 30 65 17 43 10 55 -30
          56 -11 0 -26 4 -33 9 -18 11 22 22 57 15 25 -5 27 -2 47 68 17 55 20 84 14
          118 l-7 45 -12 -32 c-8 -20 -18 -30 -26 -27 -14 6 -37 -27 -34 -49 3 -23 -1
          -37 -11 -37 -5 0 -10 17 -10 38 0 27 -8 46 -31 72 -28 32 -30 39 -26 93 3 32
          11 64 17 72 14 17 71 20 87 4 6 -6 13 -7 16 -2 8 13 19 113 13 113 -3 0 -24
          -18 -46 -40 -33 -33 -47 -40 -78 -40 -54 0 -84 24 -80 63 3 34 8 35 63 22 l30
          -7 -21 19 c-30 25 -57 81 -51 104 7 26 -10 24 -24 -3 -15 -30 -61 -77 -74 -78
          -14 0 -10 -61 5 -89 9 -18 9 -25 -3 -34 -17 -14 -30 -47 -18 -47 4 0 14 11 21
          25 15 27 26 30 63 16 29 -11 43 -67 19 -76 -8 -3 -11 -12 -8 -21 9 -22 -11
          -54 -34 -54 -11 0 -29 -9 -40 -20 -20 -20 -20 -20 -35 10 -8 16 -15 36 -15 45
          0 9 -6 15 -12 13 -7 -3 -27 -51 -45 -107 -30 -99 -31 -103 -12 -108 28 -8 24
          -33 -6 -33 -17 0 -25 -5 -25 -18 0 -27 -75 -93 -118 -104 -63 -16 -123 -25
          -126 -19 -8 14 22 103 39 115 13 9 15 15 7 20 -14 9 -16 66 -3 66 5 0 19 -13
          31 -30 21 -30 50 -41 50 -19 0 6 -21 41 -47 77 -27 37 -57 81 -68 98 -11 18
          -44 60 -73 94 -28 33 -59 74 -66 89 -14 25 -13 31 14 78 l29 51 83 -18 c46
          -10 96 -23 112 -30 20 -7 32 -8 40 0 21 21 -22 39 -184 75 -126 27 -168 40
          -179 55 -7 11 -20 20 -28 20 -14 0 -52 38 -53 52 0 8 -31 47 -67 85 -12 13
          -30 23 -40 23 -12 1 -117 134 -308 391 -159 215 -296 393 -302 396 -7 3 -13
          10 -13 17 0 6 -31 57 -69 112 -101 150 -104 154 -123 148 -9 -3 -21 3 -27 13
          -8 14 -10 1 -11 -52z m54 -26 c3 -19 13 -33 25 -36 20 -5 31 -30 31 -70 0 -35
          -15 -27 -49 25 -20 32 -31 61 -31 86 0 43 15 40 24 -5z m834 -1075 c17 -20 38
          -52 48 -70 16 -30 17 -36 4 -44 -17 -10 -40 5 -40 26 0 8 -4 14 -9 14 -5 0
          -14 14 -21 31 -7 17 -19 37 -27 45 -14 14 -10 34 7 34 5 0 22 -16 38 -36z
          m135 -113 c-2 -6 -4 -16 -5 -23 -2 -7 21 -19 55 -28 l57 -15 -17 -25 c-9 -14
          -21 -28 -27 -32 -6 -4 -5 -13 3 -25 7 -10 -1 -2 -18 17 -59 65 -83 107 -76
          130 7 21 32 22 28 1z m47 -196 c7 -9 8 -15 2 -15 -5 0 -12 7 -16 15 -3 8 -4
          15 -2 15 2 0 9 -7 16 -15z m111 -153 c18 -26 43 -59 57 -74 14 -15 22 -31 19
          -35 -12 -12 -64 47 -98 110 -36 69 -24 68 22 -1z m660 -198 l24 -26 -35 7
          c-40 8 -62 23 -54 36 10 17 41 9 65 -17z m-56 -54 c-3 -5 -10 -10 -16 -10 -5
          0 -9 5 -9 10 0 6 7 10 16 10 8 0 12 -4 9 -10z m-74 -102 c4 -5 9 -2 13 8 6 16
          8 16 22 2 19 -19 10 -78 -12 -78 -8 0 -14 -6 -14 -14 0 -8 -13 -24 -30 -36
          -36 -26 -70 -14 -70 25 0 13 -4 27 -10 30 -5 3 -10 1 -10 -4 0 -6 -5 -11 -11
          -11 -7 0 -10 12 -7 30 3 17 1 30 -2 30 -4 0 -10 -13 -13 -30 -4 -16 -11 -30
          -16 -30 -15 0 -23 57 -11 80 11 20 17 21 88 15 42 -3 80 -11 83 -17z m-210
          -31 c-8 -8 -11 -5 -11 9 0 27 14 41 18 19 2 -9 -1 -22 -7 -28z m274 -114 c-11
          -7 -22 -13 -27 -13 -4 0 -8 -4 -8 -10 0 -5 7 -7 15 -4 8 4 15 2 15 -4 0 -6 3
          -17 6 -26 5 -13 -1 -15 -32 -12 -22 2 -47 7 -56 11 -10 4 -18 3 -18 -2 0 -5
          17 -14 37 -19 42 -11 51 -25 27 -48 -12 -12 -20 -14 -27 -7 -6 6 -21 11 -34
          11 -16 0 -23 6 -23 19 0 17 -3 18 -29 8 -29 -11 -66 -4 -57 12 3 4 25 14 50
          21 24 6 70 29 102 50 32 22 62 36 67 33 6 -3 2 -12 -8 -20z m-502 -9 c-4 -12
          -8 -13 -14 -3 -9 15 -2 32 11 24 5 -3 6 -13 3 -21z m-27 -80 c-4 -13 -11 -24
          -16 -24 -11 0 -13 24 -3 59 5 20 7 21 15 6 6 -9 7 -27 4 -41z m189 -246 c60
          -20 123 -33 190 -38 55 -5 106 -10 114 -12 7 -1 16 3 19 11 3 9 0 11 -8 6 -8
          -5 -11 -4 -6 3 10 16 68 -7 73 -29 3 -11 12 -19 19 -19 22 0 16 -27 -8 -33
          -17 -5 -19 -9 -10 -20 19 -22 -6 -81 -193 -462 -98 -198 -217 -441 -265 -540
          -48 -99 -138 -283 -199 -409 -73 -149 -109 -235 -106 -247 7 -22 41 -43 56
          -33 10 6 49 -23 49 -37 0 -10 -55 -21 -102 -21 -21 1 -44 -6 -52 -13 -15 -16
          -56 -175 -56 -220 0 -35 -28 -142 -45 -175 -13 -22 -14 -23 -14 -5 -1 33 38
          233 61 319 20 77 20 79 3 93 -11 7 -33 13 -49 13 -58 0 -134 66 -107 93 7 7
          22 7 49 -1 22 -7 47 -12 56 -12 29 0 53 35 60 91 4 30 16 119 26 199 11 80 27
          199 35 265 9 66 25 185 35 265 109 821 130 980 135 996 6 21 143 4 240 -28z"/>
          <path  d="M7952 62772 c-26 -4 -87 -126 -104 -210 -21 -102 20 -131 188 -135
          l107 -2 38 95 c21 52 41 118 45 147 6 51 5 52 -27 72 -18 11 -51 23 -74 25
          -70 9 -149 12 -173 8z m-2 -93 c0 -5 -4 -9 -10 -9 -5 0 -10 7 -10 16 0 8 5 12
          10 9 6 -3 10 -10 10 -16z m-35 -38 c-3 -11 -1 -22 5 -26 14 -8 2 -47 -17 -58
          -20 -12 4 -39 28 -32 27 9 43 -3 28 -21 -6 -7 -9 -21 -5 -29 6 -17 -5 -20 -19
          -6 -6 5 -21 11 -35 13 -23 3 -25 6 -23 55 1 28 9 68 17 87 16 38 32 50 21 17z
          m105 15 c0 -11 -19 -15 -25 -6 -3 5 1 10 9 10 9 0 16 -2 16 -4z m38 -192 c-4
          -3 -19 -4 -35 -2 l-28 4 25 11 c23 10 51 1 38 -13z"/>
          <path  d="M7935 62509 c-11 -16 -1 -19 13 -3 7 8 8 14 3 14 -5 0 -13 -5 -16
          -11z"/>
          <path d="M10907 65341 c-65 -38 -128 -78 -140 -89 -12 -11 -35 -22 -52 -25
          -16 -3 -75 -24 -130 -47 -55 -22 -122 -49 -150 -60 -27 -10 -115 -44 -195 -75
          -80 -31 -167 -65 -195 -75 -27 -10 -115 -44 -195 -76 -80 -31 -164 -58 -187
          -59 -66 -4 -182 -43 -210 -72 -30 -29 -104 -63 -139 -63 -13 0 -24 -4 -24 -9
          0 -5 -24 -19 -52 -30 -29 -11 -76 -29 -104 -40 l-51 -20 20 40 c21 43 17 72
          -10 67 -20 -4 -35 -53 -28 -92 3 -16 2 -27 -1 -23 -4 4 -12 3 -19 -3 -6 -5
          -65 -30 -131 -55 -129 -50 -144 -59 -127 -76 8 -8 40 0 118 31 59 23 108 40
          110 38 2 -2 -5 -30 -16 -63 -10 -33 -21 -72 -24 -87 -3 -17 -12 -28 -22 -28
          -15 0 -15 -1 0 -18 11 -12 13 -22 7 -28 -13 -13 -120 -348 -120 -375 0 -23 3
          -23 39 -4 25 12 35 34 82 177 30 90 53 168 53 173 -1 6 -5 21 -8 35 -7 24 7
          36 208 179 119 84 216 157 216 162 0 27 -55 -4 -221 -121 -101 -71 -185 -127
          -188 -124 -3 3 5 14 19 24 21 16 25 27 24 69 0 47 1 51 30 61 17 7 42 18 56
          25 14 8 73 32 130 54 105 41 160 51 160 30 0 -8 4 -8 15 1 8 6 23 9 35 5 40
          -13 200 67 200 99 0 13 91 54 285 127 55 20 251 96 435 168 327 127 335 130
          355 112 17 -15 30 -17 80 -12 62 7 151 49 162 77 10 27 -5 26 -48 -5 -23 -17
          -45 -31 -49 -31 -4 0 -2 24 5 53 9 41 18 57 45 75 49 33 58 29 62 -25 5 -72
          23 -53 23 24 0 36 -4 68 -10 69 -5 2 -63 -27 -128 -65z m-1257 -554 c0 -18
          -73 -47 -100 -40 -15 4 -20 0 -20 -16 0 -11 -4 -21 -10 -21 -5 0 -10 4 -10 9
          0 5 -10 7 -22 5 l-23 -5 24 18 c20 15 131 60 154 62 4 1 7 -5 7 -12z"/>
          <path d="M8690 65371 c0 -5 6 -11 14 -14 8 -3 13 -14 12 -24 -3 -15 -11 -17
          -49 -15 l-46 4 -6 -45 c-4 -25 -4 -50 -1 -55 3 -6 30 -13 59 -16 28 -4 70 -11
          92 -16 22 -5 61 -12 88 -15 40 -5 47 -10 47 -28 1 -19 2 -20 13 -6 7 9 22 21
          34 28 22 11 51 87 38 99 -3 3 -31 6 -63 7 -31 1 -64 4 -72 8 -8 4 -35 11 -59
          15 -32 5 -46 13 -52 30 -7 19 -5 22 18 22 21 0 24 2 13 15 -13 16 -80 21 -80
          6z"/>
          <path  d="M8323 65288 c-13 -17 -93 -280 -93 -307 0 -21 16 -27 35 -13 6 4 16
          23 22 42 7 19 28 80 48 135 20 55 35 111 33 125 -3 28 -29 38 -45 18z"/>
          <path  d="M9181 65118 c-29 -92 -81 -310 -75 -319 3 -6 -3 -13 -15 -16 -28 -7
          -26 -18 7 -41 21 -15 46 -21 102 -22 41 -1 89 -2 105 -3 21 -1 30 3 30 13 0
          11 -25 19 -99 32 -54 10 -101 20 -104 23 -3 3 4 14 16 25 12 11 31 53 42 93
          12 39 28 93 36 119 14 47 11 91 -9 116 -15 19 -25 14 -36 -20z"/>
          <path  d="M8612 65098 c-14 -14 -16 -28 -3 -28 9 0 24 30 18 36 -2 2 -9 -2 -15
          -8z"/>
          <path  d="M8566 65051 c-12 -14 -17 -32 -15 -62 3 -36 0 -43 -19 -50 -22 -8
          -31 -29 -12 -29 13 0 6 -50 -18 -127 -11 -38 -21 -53 -34 -53 -19 0 -42 -37
          -52 -87 -5 -22 -15 -35 -34 -42 -17 -6 -21 -10 -9 -10 11 -1 17 -9 17 -26 0
          -33 20 -31 49 5 14 19 32 30 48 30 15 0 22 4 17 11 -4 7 1 10 12 7 12 -2 20
          -13 22 -31 2 -15 9 -27 18 -27 8 0 14 -4 14 -9 0 -5 22 -17 50 -27 27 -10 45
          -21 40 -24 -6 -4 -8 -14 -4 -23 7 -19 -20 -25 -31 -7 -3 6 -19 10 -34 10 -16
          0 -43 3 -60 6 -25 5 -30 10 -26 25 5 16 1 19 -22 18 -15 0 -22 -3 -15 -6 26
          -10 0 -20 -41 -16 l-43 5 -14 -56 c-10 -42 -10 -60 -2 -68 6 -6 46 -17 89 -25
          146 -24 173 -26 173 -14 0 6 6 11 14 11 9 0 12 -7 9 -20 -3 -11 0 -20 6 -20 6
          0 11 -10 12 -22 0 -20 1 -20 8 -5 3 10 17 23 30 30 16 8 30 30 41 65 l18 53
          -27 10 c-14 6 -36 8 -48 6 -15 -3 -23 1 -23 9 0 8 5 14 11 14 5 0 7 5 4 10 -3
          6 3 10 15 10 17 0 20 4 15 20 -3 11 -2 20 4 20 5 0 12 -14 16 -31 14 -62 62
          -2 71 89 l7 63 -27 -7 c-20 -5 -26 -2 -26 10 0 32 -18 15 -31 -29 -12 -40 -29
          -61 -29 -36 0 5 -9 13 -20 16 -11 3 -20 15 -20 26 0 16 5 18 24 13 24 -6 25
          -5 15 33 -6 21 -13 45 -16 53 -3 8 -6 44 -7 80 l-1 65 32 3 c29 3 34 -1 53
          -39 14 -26 20 -54 18 -75 -2 -20 0 -34 7 -34 18 0 3 157 -16 172 -22 17 -33
          54 -19 63 5 3 10 11 10 17 0 6 -10 2 -22 -9 -28 -26 -92 -40 -103 -23 -4 6
          -18 16 -32 21 -23 9 -25 13 -19 49 7 46 6 47 -18 21z m89 -181 c4 -6 0 -22 -9
          -35 -9 -13 -18 -41 -22 -62 -5 -35 -3 -39 23 -51 27 -11 26 -11 -14 -8 -28 3
          -43 0 -44 -7 -1 -7 -2 -27 -4 -45 -3 -42 -7 -45 -37 -32 -22 10 -24 18 -25 83
          -2 92 10 141 39 155 30 14 85 15 93 2z m25 -320 c0 -5 -7 -10 -15 -10 -8 0
          -15 5 -15 10 0 6 7 10 15 10 8 0 15 -4 15 -10z"/>
          <path d="M8770 65039 c0 -5 5 -7 10 -4 6 3 10 8 10 11 0 2 -4 4 -10 4 -5 0
          -10 -5 -10 -11z"/>
          <path d="M7880 64925 c0 -8 38 -95 84 -192 46 -98 87 -188 90 -200 4 -11 18
          -24 31 -27 14 -4 25 -11 25 -17 0 -6 4 -8 10 -4 10 6 2 36 -12 46 -17 11 -127
          251 -121 265 3 8 0 14 -6 14 -6 0 -23 24 -37 53 -28 56 -64 91 -64 62z"/>
          <path  d="M8171 64901 c14 -11 26 -15 28 -9 4 12 -17 28 -38 28 -8 0 -3 -8 10
          -19z"/>
          <path d="M8085 64900 c11 -5 27 -9 35 -9 9 0 8 4 -5 9 -11 5 -27 9 -35 9 -9 0
          -8 -4 5 -9z"/>
          <path d="M10895 64711 c-6 -4 -77 -43 -160 -86 -82 -42 -152 -78 -154 -80 -1
          -2 0 -8 4 -14 4 -8 13 -8 28 0 13 6 8 -2 -12 -19 -32 -27 -33 -30 -15 -40 58
          -30 76 -26 205 48 68 39 127 74 130 78 4 4 10 33 14 65 6 51 5 57 -12 57 -11
          0 -23 -4 -28 -9z m5 -64 c0 -31 -5 -36 -75 -76 -74 -42 -124 -51 -132 -24 -3
          8 6 10 29 7 31 -5 34 -3 43 27 12 38 92 91 105 69 5 -8 9 -5 13 9 8 32 17 25
          17 -12z"/>
          <path  d="M8119 64633 c-24 -64 -23 -80 7 -87 34 -9 54 13 54 59 0 56 -43 75
          -61 28z"/>
          <path  d="M8460 64570 c-13 -9 -13 -11 0 -20 15 -10 80 -14 80 -5 0 4 -55 35
          -62 35 -2 0 -10 -5 -18 -10z"/>
          <path  d="M8341 64524 c0 -11 3 -14 6 -6 3 7 2 16 -1 19 -3 4 -6 -2 -5 -13z"/>
          <path d="M8610 64506 c0 -2 7 -7 16 -10 8 -3 12 -2 9 4 -6 10 -25 14 -25 6z"/>
          <path  d="M10375 64424 c-83 -42 -168 -86 -190 -99 -22 -12 -181 -93 -354 -180
          -250 -125 -324 -158 -360 -160 -47 -3 -157 -49 -177 -74 -6 -8 -16 -11 -24 -6
          -8 5 -11 3 -8 -6 6 -17 -8 -31 -50 -53 -26 -14 -32 -14 -32 -3 0 18 -33 25
          -179 37 -64 5 -133 13 -155 16 -35 6 -38 5 -31 -15 4 -14 -1 -33 -14 -55 -26
          -41 -63 -155 -55 -168 14 -22 40 2 75 72 35 69 36 76 21 88 -17 13 -18 49 -1
          67 5 5 9 1 9 -13 0 -16 6 -22 23 -24 12 0 27 -2 32 -3 6 -1 68 -5 138 -9 70
          -5 126 -10 124 -12 -2 -2 -145 -74 -318 -159 -173 -86 -315 -162 -317 -170 -6
          -26 18 -25 70 4 29 16 62 32 74 35 18 6 20 3 16 -24 -4 -25 -1 -30 17 -30 35
          0 57 65 24 72 -11 2 32 28 101 61 74 36 126 55 137 52 14 -5 17 -2 13 9 -4 11
          17 26 82 56 48 23 92 43 98 45 41 8 66 18 66 26 0 5 15 9 34 9 19 0 37 6 39
          13 4 9 7 9 14 0 12 -17 141 45 174 84 32 36 36 39 214 129 83 42 242 124 355
          182 113 58 271 139 353 181 135 69 175 101 129 101 -10 0 -85 -34 -167 -76z
          m-920 -504 c-9 -10 -41 -26 -70 -35 -63 -18 -65 -18 -65 -5 0 15 91 59 124 60
          28 0 29 -1 11 -20z"/>
          <path  d="M8066 64398 c-73 -255 -76 -272 -56 -292 19 -19 19 -19 39 28 12 26
          35 101 52 167 25 96 29 122 19 134 -23 27 -39 16 -54 -37z"/>
          <path  d="M7780 64046 c0 -2 11 -6 25 -8 13 -3 22 -1 19 3 -5 9 -44 13 -44 5z"/>
          <path  d="M7941 63903 c-12 -54 -27 -111 -32 -127 -10 -33 -1 -50 26 -44 11 2
          29 39 55 117 42 123 41 151 -4 151 -22 0 -25 -8 -45 -97z"/>
          <path  d="M8080 63641 c-12 -24 -14 -69 -1 -55 10 11 25 74 17 74 -3 0 -10 -9
          -16 -19z"/>
          <path  d="M7510 61850 c0 -16 2 -30 4 -30 2 0 6 14 8 30 3 17 1 30 -4 30 -4 0
          -8 -13 -8 -30z"/></g>    
              </g>
              </svg>
              </svg>